<?xml version="1.0" encoding="utf-8"?>
<!-- Generator: Adobe Illustrator 28.3.0, SVG Export Plug-In . SVG Version: 6.00 Build 0)  -->
<svg version="1.1" id="Layer_1" xmlns="http://www.w3.org/2000/svg" xmlns:xlink="http://www.w3.org/1999/xlink" x="0px" y="0px"
	 viewBox="0 0 188.71 187.43" style="enable-background:new 0 0 188.71 187.43;" xml:space="preserve">
<style type="text/css">
	.st0{fill:#010101;}
	.st1{fill:#23A34A;}
</style>
<path class="st0" d="M188.39,171.24l-13.16-31.29c7.98-14.04,12.2-29.98,12.2-46.24C187.43,42.04,145.39,0,93.71,0S0,42.04,0,93.71
	s42.04,93.71,93.71,93.71c20.64,0,40.84-6.91,57.14-19.46l32.82,8.69c0.34,0.09,0.68,0.13,1.02,0.13c1.14,0,2.25-0.49,3.02-1.38
	C188.72,174.27,188.98,172.65,188.39,171.24z M146.16,104.72c-0.56-6.6-2.49-14.89-8.2-20.47c-0.99-0.97-2.57-0.95-3.54,0.04
	c-0.97,0.99-0.95,2.57,0.04,3.54c7.37,7.2,7.06,20.94,6.76,25.31c-4.12,6.73-8.69,13.48-13.7,19.95c0.16-8.52-1.32-21.63-9.89-33.11
	c-0.83-1.11-2.39-1.33-3.5-0.51c-1.11,0.83-1.33,2.39-0.51,3.5c10.74,14.39,9.01,32.27,8.32,36.95c-3.71,4.31-7.63,8.41-11.76,12.21
	c-2.67-10.53-6.94-22.98-13.75-35.54c23.25-44.21,61.21-59.48,72.66-63.21c-0.06,0.13-0.13,0.26-0.18,0.41
	C168.79,54.19,161.11,78.13,146.16,104.72z M108.43,178.14c-0.21-0.18-0.43-0.34-0.68-0.46c-0.27-0.13-14.93-7.19-34.82-28.02
	c-2.07-5.49-7.33-22.51,0.64-36.6c0.68-1.2,0.26-2.73-0.95-3.41c-1.2-0.68-2.73-0.26-3.41,0.95c-5.97,10.56-5.53,22.22-3.85,30.74
	c-5-5.78-10.22-12.37-15.56-19.89c0-0.3-0.05-0.61-0.17-0.91c-0.09-0.22-8.65-22.24-4.37-36.81c0.39-1.32-0.37-2.71-1.69-3.1
	c-1.33-0.39-2.71,0.37-3.1,1.69c-2.37,8.07-1.36,17.78,0.3,25.62c-8.21-12.98-16.51-28.18-24.48-45.92
	c-0.01-0.03-0.04-0.06-0.05-0.09c5.24,1.28,10.31,2.84,15.13,4.67c25.52,9.66,45.38,26.97,59.04,51.45c0,0,0,0,0,0
	c0,0,0,0.01,0.01,0.01c14.41,25.83,17.46,52.18,18.07,60.06C108.46,178.14,108.45,178.14,108.43,178.14z M92.92,110.48
	c-9.2-15.05-20.81-27.31-34.67-36.68c9.52-10.85,22.12-16.91,35.5-17.06c14.15-0.18,24.7,7.78,31.69,14.34
	C114.14,80.48,102.53,93.25,92.92,110.48z M130.18,67.3c-7.74-7.4-19.74-16.78-36.5-16.57c-15.23,0.17-29.51,7.06-40.2,19.38
	c-0.12,0.14-0.22,0.28-0.3,0.43c-5.12-3.08-10.52-5.79-16.2-8.14c13.57-19.38,34.06-30.43,56.73-30.43
	c20.62,0,38.96,8.94,51.9,25.19C140.79,59.88,135.56,63.22,130.18,67.3z M93.71,8c30.46,0,57.24,15.98,72.44,39.99
	c-3.58,1.18-8.86,3.18-15.14,6.32c-14.13-18.27-34.43-28.33-57.3-28.33c-25.16,0-47.81,12.44-62.5,34.21
	c-4.63-1.65-9.44-3.09-14.41-4.27C30.8,27.56,60.01,8,93.71,8z M8,93.71c0-9.17,1.46-18.01,4.15-26.3
	c9.84,21.5,20.1,39.24,30.06,53.81c-7.09-4.07-16-7.55-25.36-7.1c-1.38,0.06-2.45,1.23-2.38,2.61c0.06,1.38,1.24,2.44,2.61,2.38
	c14.63-0.67,28.71,9.98,34.33,14.83c3.91,5.09,7.72,9.7,11.41,13.87c-8.13-3.84-17.51-6.84-25.04-5.28
	c-1.35,0.28-2.22,1.6-1.94,2.96c0.28,1.35,1.6,2.22,2.96,1.94c11.31-2.35,28.89,8.22,36.21,13.09c9.83,9.43,18.04,15.35,23.42,18.76
	c-1.57,0.09-3.14,0.15-4.71,0.15C46.45,179.43,8,140.98,8,93.71z M151,159.73c-0.09-0.02-0.17-0.02-0.26-0.04
	c-0.15-0.03-0.29-0.06-0.44-0.07c-0.13-0.01-0.26-0.01-0.39,0c-0.13,0-0.25,0-0.38,0.02c-0.14,0.02-0.27,0.04-0.4,0.07
	c-0.12,0.03-0.24,0.05-0.36,0.09c-0.13,0.04-0.26,0.1-0.39,0.15c-0.11,0.05-0.22,0.09-0.32,0.15c-0.14,0.08-0.27,0.17-0.4,0.26
	c-0.07,0.05-0.14,0.08-0.2,0.13c-9.71,7.83-21.04,13.39-33.05,16.38c-0.3-3.69-1.01-10.06-2.69-18.08c0.05-0.04,0.11-0.07,0.17-0.12
	c5.39-4.72,10.43-9.92,15.12-15.4c3.09-1.56,13.96-6.17,26.86-1.71c1.3,0.45,2.73-0.24,3.18-1.55c0.45-1.3-0.24-2.73-1.55-3.18
	c-8.78-3.03-16.67-2.43-22.43-1.04c5.04-6.55,9.62-13.35,13.73-20.1c3.82-2.36,13.46-7.34,23.32-4.72c1.33,0.36,2.7-0.44,3.06-1.77
	c0.36-1.33-0.44-2.7-1.77-3.06c-7.45-1.99-14.61-0.44-19.99,1.66c11.21-19.9,18.33-38.26,21.43-46.98
	c4.23,10.13,6.57,21.24,6.57,32.89c0,15.5-4.18,30.68-12.09,43.91c-0.05,0.08-0.07,0.16-0.11,0.24c-0.07,0.13-0.13,0.26-0.19,0.4
	c-0.05,0.12-0.08,0.24-0.11,0.37c-0.03,0.13-0.07,0.25-0.09,0.38c-0.02,0.13-0.03,0.26-0.04,0.39c-0.01,0.13-0.02,0.26-0.02,0.39
	c0,0.13,0.02,0.26,0.04,0.39c0.02,0.13,0.03,0.25,0.06,0.38c0.03,0.14,0.08,0.28,0.13,0.42c0.03,0.09,0.04,0.17,0.08,0.26
	l10.78,25.61L151,159.73z"/>
</svg>
