<?xml version="1.0" encoding="utf-8"?>
<!-- Generator: Adobe Illustrator 28.3.0, SVG Export Plug-In . SVG Version: 6.00 Build 0)  -->
<svg version="1.1" id="Layer_1" xmlns="http://www.w3.org/2000/svg" xmlns:xlink="http://www.w3.org/1999/xlink" x="0px" y="0px"
	 viewBox="0 0 171.43 171.43" style="enable-background:new 0 0 171.43 171.43;" xml:space="preserve">
<style type="text/css">
	.st0{fill:#010101;}
	.st1{fill:#23A34A;}
</style>
<path class="st1" d="M66.97,152.49c9.86,9.46,18.1,15.4,23.48,18.8c-1.57,0.1-3.15,0.14-4.73,0.14C38.46,171.43,0,132.98,0,85.71
	c0-9.18,1.45-18.03,4.14-26.32c9.84,21.51,20.1,39.26,30.06,53.83c-7.09-4.07-16-7.54-25.35-7.1c-1.38,0.06-2.45,1.23-2.38,2.61
	c0.06,1.38,1.24,2.45,2.61,2.38c14.62-0.67,28.68,9.96,34.31,14.82c3.92,5.11,7.74,9.72,11.44,13.89
	c-8.13-3.85-17.52-6.85-25.05-5.29c-1.35,0.28-2.22,1.61-1.94,2.96c0.28,1.35,1.61,2.21,2.96,1.94
	C42.09,137.09,59.62,147.61,66.97,152.49z M82.48,110.18c-0.03-0.04-0.05-0.07-0.06-0.1C68.76,85.59,48.9,68.27,23.37,58.61
	c-4.81-1.82-9.88-3.39-15.12-4.67c0.02,0.03,0.03,0.07,0.05,0.1c7.97,17.74,16.27,32.95,24.48,45.93
	c-1.67-7.84-2.68-17.56-0.31-25.63c0.39-1.33,1.78-2.09,3.1-1.7c1.33,0.39,2.09,1.78,1.7,3.11c-4.28,14.57,4.28,36.58,4.37,36.8
	c0.12,0.3,0.18,0.62,0.18,0.92c5.33,7.51,10.55,14.1,15.55,19.87c-1.69-8.51-2.13-20.17,3.84-30.73c0.68-1.21,2.21-1.63,3.41-0.95
	c1.2,0.68,1.63,2.2,0.95,3.41c-7.94,14.04-2.71,31.08-0.65,36.6c19.89,20.83,34.56,27.89,34.83,28.02c0.26,0.12,0.5,0.27,0.7,0.46
	c0.02,0,0.03,0.01,0.04,0.03c0-0.01-0.01-0.03,0-0.04c-0.29-3.63-1.09-11.21-3.29-20.87C94.64,138.06,90.19,124.05,82.48,110.18z
	 M159.07,133.17c-0.07-0.16-0.12-0.32-0.16-0.48c-0.03-0.11-0.05-0.22-0.07-0.33c-0.02-0.09-0.03-0.17-0.04-0.26
	c-0.01-0.14-0.02-0.28-0.02-0.42c0-0.14,0.01-0.29,0.02-0.43c0.01-0.05,0.01-0.1,0.02-0.15c0.02-0.14,0.05-0.28,0.09-0.41
	c0.01-0.05,0.02-0.1,0.04-0.15c0.04-0.14,0.09-0.28,0.15-0.42c0.07-0.17,0.15-0.33,0.25-0.49c0.02-0.05,0.05-0.1,0.09-0.15
	c7.84-13.19,11.99-28.33,11.99-43.77c0-11.64-2.33-22.75-6.57-32.88c-3.1,8.71-10.21,27.07-21.42,46.97
	c5.38-2.11,12.54-3.65,19.98-1.66c1.34,0.35,2.13,1.72,1.77,3.05c-0.35,1.34-1.72,2.13-3.06,1.78c-9.85-2.63-19.49,2.34-23.31,4.7
	c-4.11,6.76-8.7,13.57-13.75,20.13c5.75-1.4,13.66-2,22.44,1.03c1.31,0.45,2,1.87,1.55,3.18c-0.45,1.3-1.88,1.99-3.18,1.54
	c-12.9-4.46-23.76,0.15-26.86,1.71c-4.69,5.48-9.73,10.69-15.13,15.41c-0.05,0.04-0.1,0.09-0.16,0.13
	c1.68,8.01,2.39,14.39,2.69,18.08c11.95-2.98,23.22-8.51,32.89-16.27c0.26-0.23,0.56-0.43,0.87-0.59c0.07-0.04,0.14-0.07,0.22-0.1
	c0.49-0.21,1.03-0.33,1.58-0.33c0.34,0,0.69,0.05,1.03,0.14l0.26,0.07l26.6,7.04l-10.78-25.61
	C159.08,133.21,159.07,133.19,159.07,133.17z M113.96,131.9c0.68-4.72,2.39-22.57-8.33-36.93c-0.83-1.11-0.6-2.68,0.51-3.5
	c1.1-0.83,2.67-0.6,3.49,0.51c8.57,11.48,10.05,24.59,9.89,33.11c5.02-6.45,9.59-13.21,13.71-19.94c0.31-4.36,0.62-18.11-6.76-25.32
	c-0.99-0.97-1-2.55-0.04-3.54c0.97-0.98,2.55-1,3.54-0.04c5.7,5.58,7.64,13.88,8.19,20.48c14.96-26.6,22.63-50.55,22.76-50.94
	c0.05-0.14,0.1-0.28,0.17-0.41c-3.71,1.21-10.21,3.63-18.09,7.86c-5.82,3.13-12.4,7.24-19.17,12.58
	c-12.32,9.71-25.25,23.48-35.39,42.76c6.81,12.56,11.08,25.02,13.74,35.56C106.33,140.33,110.25,136.22,113.96,131.9z M50.26,65.77
	c13.87,9.37,25.47,21.65,34.67,36.71c9.6-17.23,21.21-30.01,32.51-39.41c-6.98-6.56-17.56-14.52-31.69-14.34
	C72.37,48.88,59.78,54.93,50.26,65.77z M137.64,49.16c-12.94-16.26-31.3-25.18-51.92-25.18c-22.67,0-43.15,11.03-56.72,30.41
	c5.67,2.34,11.07,5.05,16.18,8.15c0.09-0.15,0.19-0.29,0.31-0.43C56.18,49.78,70.45,42.9,85.68,42.73
	c16.74-0.17,28.76,9.17,36.49,16.57C127.56,55.21,132.8,51.87,137.64,49.16z M85.72,17.98c22.88,0,43.18,10.05,57.3,28.33
	c6.29-3.15,11.58-5.15,15.16-6.33C142.98,15.97,116.18,0,85.72,0C52.01,0,22.78,19.56,8.8,47.92c4.97,1.17,9.8,2.6,14.43,4.25
	C37.93,30.41,60.57,17.98,85.72,17.98z M161.21,45.16c-0.05,0.07-0.09,0.14-0.12,0.22c0.07-0.02,0.14-0.04,0.21-0.06
	C161.27,45.26,161.25,45.21,161.21,45.16z M38.28,115.75c-0.21-0.15-0.43-0.29-0.65-0.43C37.83,115.5,38.05,115.64,38.28,115.75z
	 M23.26,58.56c0.03,0.02,0.07,0.04,0.11,0.05c0.08,0.03,0.16,0.06,0.24,0.08C23.49,58.66,23.37,58.61,23.26,58.56z"/>
</svg>
